<svg xmlns="http://www.w3.org/2000/svg" xml:space="preserve" style="enable-background:new 0 0 47.5 47.5" viewBox="0 0 47.5 47.5" id="charge">
  <defs>
    <clipPath id="a">
      <path d="M0 38h38V0H0v38Z"></path>
    </clipPath>
  </defs>
  <g clip-path="url(#a)" transform="matrix(1.25 0 0 -1.25 0 47.5)">
    <path d="M0 0a1.003 1.003 0 0 0 0-1.414 1.003 1.003 0 0 0-1.414 0l-8.485 8.486a1.003 1.003 0 0 0 0 1.414 1.003 1.003 0 0 0 1.414 0L0 0Z" style="fill:#9aaab4;fill-opacity:1;fill-rule:nonzero;stroke:none" transform="translate(12.858 20.736)"></path>
    <path d="M0 0a1.003 1.003 0 0 0 0-1.414 1.003 1.003 0 0 0-1.414 0L-9.9 7.072a1.003 1.003 0 0 0 0 1.414 1.003 1.003 0 0 0 1.414 0L0 0Z" style="fill:#9aaab4;fill-opacity:1;fill-rule:nonzero;stroke:none" transform="translate(19.93 27.807)"></path>
    <path d="M0 0c0 4.966-2.56 8.581-4.562 10.65.899 1.533.705 3.53-.61 4.844l-1.099 1.099c.352 1.332.022 2.806-1.022 3.85l-4.949 4.95a2.001 2.001 0 0 1-2.829 2.829l-2.826-2.826-.003-.003-4.243-4.243-2.828-2.828a2 2 0 1 1 2.828-2.828l4.951-4.95c1.044-1.044 2.518-1.373 3.849-1.022l1.101-1.1a3.99 3.99 0 0 1 4.857-.602C-5.901 6.274-4 3.596-4 0h4z" style="fill:#292f33;fill-opacity:1;fill-rule:nonzero;stroke:none" transform="translate(35 1)"></path>
  </g>
</svg>
