<?xml version="1.0" encoding="utf-8"?>
<!-- Generator: Adobe Illustrator 24.1.0, SVG Export Plug-In . SVG Version: 6.00 Build 0)  -->
<svg version="1.1" id="Layer_1" xmlns="http://www.w3.org/2000/svg" xmlns:xlink="http://www.w3.org/1999/xlink" x="0px" y="0px"
	 viewBox="0 0 105.5220032 15.6487389" enable-background="new 0 0 105.5220032 15.6487389" xml:space="preserve">
<g>
	<path d="M65.7549896,0h-1.052002l4.5640106,12.0249939h1.0859985L74.9329987,0h-1.0340118l-4.0549927,10.8190002h-0.0339966
		L65.7549896,0z M77.4559937,0.7099915c0-0.4069824-0.3399963-0.6959839-0.6959991-0.6959839
		c-0.3390045,0-0.6790009,0.2890015-0.6790009,0.6959839c0,0.4070129,0.3399963,0.6950073,0.6790009,0.6950073
		C77.1159973,1.4049988,77.4559937,1.1170044,77.4559937,0.7099915 M77.2359924,3.7080078H76.302002v8.3169861h0.9339905V3.7080078z
		 M84.4759979,5.0509949c-0.5079956-0.8649902-1.5070038-1.3410034-2.6580048-1.3410034
		c-1.3710022,0-2.6920013,0.6790161-2.6920013,2.2060242c0,2.9349976,4.5879974,1.6279907,4.5879974,3.7829895
		c0,1.1029968-0.9649963,1.5440063-1.946991,1.5440063c-0.9649963,0-1.8119965-0.5100098-2.2689972-1.2210083l-0.727005,0.5249939
		c0.677002,1.0010071,1.8099976,1.4760132,2.9960022,1.4760132c1.4389954,0,2.8609924-0.7120056,2.8609924-2.3919983
		c0-1.2890015-0.9649963-1.8999939-2.6399994-2.2740173c-1.3040009-0.2879944-1.9819946-0.5929871-1.9819946-1.5090027
		c0-0.9849854,0.947998-1.3739929,1.7769928-1.3739929c0.881012,0,1.5920105,0.4230042,1.9820099,1.0859985L84.4759979,5.0509949z
		 M87.5889893,0.6950073C87.5889893,0.2879944,87.2489929,0,86.8929901,0c-0.3389893,0-0.6790009,0.2879944-0.6790009,0.6950073
		c0,0.4079895,0.3400116,0.6960144,0.6790009,0.6960144C87.2489929,1.3910217,87.5889893,1.1029968,87.5889893,0.6950073
		 M87.3929901,3.7099915h-0.9819946v8.3130188h0.9819946V3.7099915z M97.2169952,7.8590088
		c0-2.4030151-1.7100067-4.1459961-4.1640015-4.1459961c-2.4369965,0-4.1459961,1.742981-4.1459961,4.1459961
		c0,2.3869934,1.7089996,4.1640015,4.1459961,4.1640015C95.5069885,12.0230103,97.2169952,10.2460022,97.2169952,7.8590088
		 M96.2689972,7.8590088c0,1.8789978-1.2360077,3.3339844-3.2160034,3.3339844c-1.9629974,0-3.197998-1.4549866-3.197998-3.3339844
		c0-1.8779907,1.2350006-3.3510132,3.197998-3.3510132C95.0329895,4.5079956,96.2689972,5.9810181,96.2689972,7.8590088
		 M98.7519989,3.7099915c0.0509949,0.526001,0.0679932,1.5780029,0.0679932,2.0190125v6.29599h0.9329987V7.7990112
		c0-2.2050171,1.2380066-3.3089905,2.6119995-3.3089905c1.7489929,0,2.2409973,1.289978,2.2409973,2.8509827v4.6839905h0.9160156
		V7.0010071c0-1.8659973-0.8830261-3.2910156-2.9520264-3.2910156c-1.1879883,0-2.3749847,0.6950073-2.8329773,1.7810059h-0.0350037
		c0-0.4239807-0.0339966-1.3399963-0.0679932-1.7810059H98.7519989z M0,12.0119934h1.7720032
		c3.3089905,0,6.0059967-2.697998,6.0059967-6.0059814C7.7779999,2.6960144,5.0809937,0,1.7720032,0H0V12.0119934z M17.0869904,0
		h-1.7719879c-3.3090057,0-6.0070038,2.6960144-6.0070038,6.006012c0,3.3079834,2.697998,6.0059814,6.0070038,6.0059814h1.7719879V0
		z M31.0690002,6.006012c0,3.3110046-2.6940002,6.0059814-6.006012,6.0059814H20.723999V0h4.3389893
		C28.375,0,31.0690002,2.6940002,31.0690002,6.006012 M29.2480011,6.006012c0-2.3059998-1.8789978-4.1849976-4.1850128-4.1849976
		H22.54599v8.3699951h2.5169983C27.3690033,10.1910095,29.2480011,8.3120117,29.2480011,6.006012 M40.3179932,7.8500061
		c0,2.29599-1.8670044,4.1619873-4.1620026,4.1619873c-2.29599,0-4.1629944-1.8659973-4.1629944-4.1619873
		c0-2.2950134,1.8670044-4.1619873,4.1629944-4.1619873C38.4509888,3.6880188,40.3179932,5.5549927,40.3179932,7.8500061
		 M38.6649933,7.8460083c0-1.3770142-1.1320038-2.5090027-2.5090027-2.5090027s-2.5099945,1.1159973-2.5099945,2.5090027
		c0,1.3779907,1.1170044,2.5100098,2.5099945,2.5100098C37.5329895,10.3560181,38.6649933,9.2380066,38.6649933,7.8460083
		 M41.4960022,12.0249939h1.8209991V0.0010071h-1.8209991V12.0249939z M53.2149963,7.8600159
		c0,2.2949829-1.8679962,4.1629944-4.1629944,4.1629944c-0.8850098,0-1.7050018-0.2789917-2.3800049-0.7510071v0.7520142h-1.8249969
		V0h1.8249969v4.447998c0.6750031-0.4719849,1.4949951-0.7509766,2.3800049-0.7509766
		C51.3470001,3.6970215,53.2149963,5.5639954,53.2149963,7.8600159 M51.5609894,7.8450012
		c0-1.3779907-1.1319885-2.5100098-2.5089874-2.5100098c-1.1030121,0-2.0470123,0.7170105-2.3800049,1.7180176
		c-0.0830078,0.2479858-0.1300049,0.5140076-0.1300049,0.7919922c0,0.2749939,0.0469971,0.5410156,0.1300049,0.7900085
		c0.3309937,0.993988,1.2669983,1.7200012,2.3800049,1.7200012C50.4290009,10.355011,51.5609894,9.2369995,51.5609894,7.8450012
		 M59.8860016,3.7099915l-2.3720093,5.3340149l-2.3730011-5.3340149h-1.9889984l3.3679962,7.5680237
		c0,0-0.8239899,1.8540039-0.8259888,1.8589783c-0.2180023,0.4890137-0.7950134,0.710022-1.2830048,0.4920044l-0.2610016-0.1159973
		l-0.7350006,1.6490173l0.003006,0.0019836l0.6309967,0.2810059c1.1829987,0.5289917,2.5809937-0.0079956,3.1100006-1.1960144
		C57.1629944,14.2400208,61.470993,4.6140137,61.875,3.7099915H59.8860016z"/>
</g>
<g>
</g>
<g>
</g>
<g>
</g>
<g>
</g>
<g>
</g>
<g>
</g>
</svg>
