<!DOCTYPE svg PUBLIC "-//W3C//DTD SVG 1.1//EN" "http://www.w3.org/Graphics/SVG/1.1/DTD/svg11.dtd">
<!-- Uploaded to: SVG Repo, www.svgrepo.com, Transformed by: SVG Repo Mixer Tools -->
<svg fill="#29a419" height="800px" width="800px" version="1.1" id="Capa_1" xmlns="http://www.w3.org/2000/svg" xmlns:xlink="http://www.w3.org/1999/xlink" viewBox="0 0 309.978 309.978" xml:space="preserve" transform="matrix(1, 0, 0, 1, 0, 0)" stroke="#29a419">
<g id="SVGRepo_bgCarrier" stroke-width="0"/>
<g id="SVGRepo_tracerCarrier" stroke-linecap="round" stroke-linejoin="round"/>
<g id="SVGRepo_iconCarrier"> <g> <path d="M153.448,45.446c-7.796-12.435-21.438-19.991-36.116-20.003C102.654,25.43,89,32.962,81.18,45.384L63.656,73.227 c-1.247,1.982-1.655,4.379-1.136,6.662c0.521,2.284,1.927,4.267,3.909,5.513l36.999,23.255c1.984,1.247,4.383,1.654,6.667,1.131 c2.284-0.523,4.267-1.933,5.511-3.919L153.448,45.446z"/> <path d="M160.434,33.866l-0.022-0.012l38.33,61.133l-4.369,2.781c-1.07,0.681-1.667,1.906-1.545,3.169s0.943,2.351,2.124,2.814 l56.054,21.997c1.003,0.394,2.134,0.284,3.043-0.295c0.908-0.579,1.486-1.557,1.554-2.632l3.794-60.097 c0.08-1.267-0.558-2.47-1.65-3.116c-1.093-0.645-2.455-0.623-3.525,0.059l-3.705,2.359L228.672,27.19 c-4.827-7.7-13.277-12.375-22.365-12.375h-74.472C143.512,16.86,153.939,23.698,160.434,33.866z"/> <path d="M267.258,214.027c14.677,0.018,28.333-7.509,36.156-19.929c7.821-12.419,8.712-27.986,2.359-41.217l-14.248-29.657 c-1.014-2.111-2.825-3.732-5.035-4.507c-2.21-0.775-4.638-0.64-6.748,0.376l-39.379,18.946c-2.111,1.016-3.732,2.83-4.506,5.042 c-0.773,2.212-0.634,4.641,0.385,6.751L267.258,214.027z"/> <path d="M273.342,226.105l0.022-0.014l-72.156-0.085l-0.029-5.178c-0.007-1.269-0.726-2.426-1.86-2.995 c-1.134-0.568-2.492-0.452-3.513,0.301l-48.454,35.748c-0.867,0.64-1.376,1.655-1.37,2.733c0.006,1.077,0.526,2.087,1.401,2.716 l48.856,35.197c1.029,0.742,2.388,0.843,3.516,0.261c1.128-0.582,1.834-1.747,1.827-3.016l-0.025-4.393l41.12,0.048 c9.089,0.011,17.543-4.654,22.38-12.349l39.636-63.048C296.746,220.83,285.407,226.019,273.342,226.105z"/> <path d="M60.121,266.543c7.759,12.458,21.378,20.055,36.056,20.111l32.9,0.128c2.342,0.009,4.592-0.913,6.254-2.563 c1.662-1.65,2.6-3.893,2.607-6.235l0.141-43.699c0.008-2.343-0.917-4.594-2.57-6.255c-1.653-1.661-3.9-2.597-6.242-2.6 l-71.294-0.116C51.549,238.512,52.361,254.084,60.121,266.543z"/> <path d="M80.695,162.893c1.146,0.547,2.5,0.406,3.507-0.367c1.007-0.772,1.495-2.045,1.263-3.292l-11.014-59.198 c-0.197-1.059-0.889-1.96-1.86-2.425c-0.972-0.465-2.107-0.437-3.056,0.075l-52.992,28.595c-1.117,0.603-1.801,1.781-1.769,3.049 c0.031,1.269,0.772,2.412,1.916,2.96l3.964,1.896L2.662,171.159c-3.978,8.172-3.471,17.816,1.341,25.526l39.425,63.179 c-4.447-10.989-4.167-23.455,1.021-34.348l0.005,0.025l31.57-64.883L80.695,162.893z"/> </g> </g>
</svg>