<?xml version="1.0" encoding="iso-8859-1"?>
<!-- Uploaded to: SVG Repo, www.svgrepo.com, Generator: SVG Repo Mixer Tools -->
<svg height="800px" width="800px" version="1.1" id="Layer_1" xmlns="http://www.w3.org/2000/svg" xmlns:xlink="http://www.w3.org/1999/xlink" 
	 viewBox="0 0 512 512" xml:space="preserve">
<path style="fill:#D9DCDF;" d="M273.041,112.596h-34.082c-4.413,0-7.988,3.575-7.988,7.988v195.974c0,4.413,3.575,7.988,7.988,7.988
	h34.082c4.413,0,7.988-3.575,7.988-7.988V120.584C281.029,116.171,277.453,112.596,273.041,112.596z"/>
<g>
	<path style="fill:#B3B9BF;" d="M256,61.472c-13.801,0-25.029,11.228-25.029,25.029v34.082h50.059V86.502
		C281.029,72.7,269.801,61.472,256,61.472z"/>
	<path style="fill:#B3B9BF;" d="M238.959,112.596c-4.413,0-7.988,3.575-7.988,7.988v195.974c0,4.413,3.575,7.988,7.988,7.988h7.456
		V112.596H238.959z"/>
</g>
<path style="fill:#8E959F;" d="M230.971,86.502v34.082h15.444v-57.2C237.357,67.153,230.971,76.095,230.971,86.502z"/>
<path style="fill:#ECEDEF;" d="M451.974,308.57H60.026c-13.801,0-25.029,11.228-25.029,25.029v153.371
	c0,13.801,11.228,25.029,25.029,25.029h391.949c13.801,0,25.029-11.228,25.029-25.029V333.6
	C477.004,319.798,465.776,308.57,451.974,308.57z"/>
<path style="fill:#D9DCDF;" d="M36.628,324.723c-1.05,2.761-1.632,5.751-1.632,8.875V486.97c0,3.125,0.58,6.115,1.632,8.875h438.745
	c1.051-2.761,1.632-5.75,1.632-8.875V333.599c0-3.125-0.58-6.115-1.632-8.875H36.628z"/>
<path style="fill:#509FE8;" d="M486.057,334.132H25.943c-13.801,0-25.029,11.228-25.029,25.029v102.247
	c0,13.801,11.228,25.029,25.029,25.029h460.114c13.801,0,25.029-11.228,25.029-25.029V359.162
	C511.086,345.36,499.858,334.132,486.057,334.132z"/>
<path style="fill:#4D8CCF;" d="M503.631,469.93H43.517c-13.801,0-25.029-11.228-25.029-25.029V342.653
	c0-2.7,0.435-5.299,1.229-7.737c-10.799,2.775-18.803,12.592-18.803,24.245v102.247c0,13.801,11.228,25.029,25.029,25.029h460.114
	c11.101,0,20.533-7.267,23.8-17.293C507.865,469.657,505.779,469.93,503.631,469.93z"/>
<g>
	<path style="fill:#97CCE8;" d="M409.371,452.356c-23.197,0-42.071-18.873-42.071-42.071c0-10.262,3.736-20.145,10.521-27.83
		c2.918-3.306,7.967-3.62,11.275-0.702c3.306,2.92,3.621,7.968,0.701,11.276c-4.204,4.763-6.52,10.893-6.52,17.256
		c0,14.389,11.705,26.094,26.094,26.094c14.389,0,26.094-11.705,26.094-26.094c0-6.365-2.317-12.493-6.523-17.26
		c-2.919-3.307-2.604-8.356,0.703-11.275c3.306-2.92,8.356-2.605,11.275,0.703c6.785,7.687,10.521,17.571,10.521,27.832
		C451.442,433.483,432.569,452.356,409.371,452.356z"/>
	<path style="fill:#97CCE8;" d="M409.371,418.273c-4.413,0-7.988-3.575-7.988-7.988v-34.082c0-4.413,3.575-7.988,7.988-7.988
		s7.988,3.575,7.988,7.988v34.082C417.359,414.697,413.783,418.273,409.371,418.273z"/>
</g>
<path style="fill:#AFCA62;" d="M85.588,385.256c-13.801,0-25.029,11.228-25.029,25.029c0,13.801,11.228,25.029,25.029,25.029
	s25.029-11.228,25.029-25.029C110.617,396.484,99.389,385.256,85.588,385.256z"/>
<path style="fill:#C4DF64;" d="M85.588,393.244c-9.396,0-17.041,7.645-17.041,17.041c0,9.396,7.645,17.041,17.041,17.041
	s17.041-7.645,17.041-17.041C102.629,400.889,94.984,393.244,85.588,393.244z"/>
<path style="fill:#DF7A6E;" d="M153.753,385.256c-13.801,0-25.029,11.228-25.029,25.029c0,13.801,11.228,25.029,25.029,25.029
	s25.029-11.228,25.029-25.029C178.782,396.484,167.554,385.256,153.753,385.256z"/>
<path style="fill:#FF8C78;" d="M153.753,393.244c-9.396,0-17.041,7.645-17.041,17.041c0,9.396,7.645,17.041,17.041,17.041
	c9.396,0,17.041-7.645,17.041-17.041C170.794,400.889,163.149,393.244,153.753,393.244z"/>
<path style="fill:#AFCA62;" d="M221.918,385.256c-13.801,0-25.029,11.228-25.029,25.029c0,13.801,11.228,25.029,25.029,25.029
	s25.029-11.228,25.029-25.029C246.947,396.484,235.719,385.256,221.918,385.256z"/>
<path style="fill:#C4DF64;" d="M221.918,393.244c-9.396,0-17.041,7.645-17.041,17.041c0,9.396,7.645,17.041,17.041,17.041
	c9.396,0,17.041-7.645,17.041-17.041C238.959,400.889,231.314,393.244,221.918,393.244z"/>
<g>
	<path style="fill:#AFCA62;" d="M315.637,101.187c-6.06,0-9.924-6.774-6.907-11.99c3.774-6.521,5.767-13.978,5.767-21.564
		c0-7.584-1.994-15.04-5.766-21.563c-2.209-3.818-0.904-8.705,2.915-10.914c3.817-2.207,8.706-0.904,10.914,2.915
		c5.176,8.949,7.914,19.171,7.914,29.561c0,10.392-2.736,20.615-7.915,29.564C321.077,99.757,318.395,101.187,315.637,101.187z"/>
	<path style="fill:#AFCA62;" d="M345.163,118.223c-6.06,0-9.924-6.774-6.907-11.989c6.755-11.678,10.324-25.025,10.324-38.601
		c0-13.578-3.571-26.926-10.326-38.603c-2.209-3.818-0.904-8.706,2.914-10.915c3.819-2.207,8.705-0.903,10.915,2.914
		c8.16,14.105,12.473,30.219,12.473,46.604c0,16.38-4.313,32.494-12.471,46.599C350.605,116.792,347.922,118.223,345.163,118.223z"
		/>
	<path style="fill:#AFCA62;" d="M373.606,137.094c-6.12,0-9.975-6.897-6.835-12.111c10.396-17.257,15.891-37.088,15.891-57.349
		c0-19.57-5.148-38.81-14.887-55.644c-2.209-3.819-0.904-8.706,2.914-10.915c3.82-2.208,8.705-0.904,10.915,2.914
		c11.143,19.262,17.033,41.27,17.033,63.645c0,23.165-6.287,45.847-18.183,65.593C378.956,135.716,376.315,137.094,373.606,137.094z
		"/>
	<path style="fill:#AFCA62;" d="M196.363,101.187c-2.759,0-5.44-1.43-6.922-3.989c-5.177-8.949-7.915-19.172-7.915-29.564
		c0-10.39,2.736-20.612,7.914-29.561c2.208-3.819,7.093-5.123,10.914-2.915c3.819,2.209,5.125,7.096,2.915,10.914
		c-3.773,6.523-5.766,13.978-5.766,21.563c0,7.585,1.994,15.042,5.767,21.564C206.288,94.412,202.425,101.187,196.363,101.187z"/>
	<path style="fill:#AFCA62;" d="M166.837,118.223c-2.759,0-5.441-1.43-6.922-3.99c-8.159-14.105-12.471-30.219-12.471-46.599
		c0-16.384,4.314-32.499,12.473-46.604c2.21-3.818,7.1-5.12,10.915-2.914c3.818,2.209,5.124,7.097,2.914,10.915
		c-6.756,11.676-10.326,25.025-10.326,38.603c0,13.575,3.57,26.923,10.324,38.601C176.762,111.449,172.897,118.223,166.837,118.223z
		"/>
	<path style="fill:#AFCA62;" d="M138.394,137.094c-2.708,0-5.35-1.378-6.85-3.867c-11.896-19.745-18.183-42.427-18.183-65.593
		c0-22.375,5.89-44.383,17.033-63.645c2.209-3.818,7.094-5.123,10.915-2.914c3.818,2.209,5.124,7.096,2.914,10.915
		c-9.739,16.834-14.887,36.074-14.887,55.644c0,20.26,5.495,40.092,15.891,57.349C148.37,130.195,144.514,137.094,138.394,137.094z"
		/>
</g>
</svg>