<?xml version="1.0" encoding="UTF-8" standalone="no"?>
<svg xmlns="http://www.w3.org/2000/svg" xmlns:xlink="http://www.w3.org/1999/xlink" width="137.79099" height="96" version="1.0">
  <defs>
    <linearGradient id="b">
      <stop offset="0" stop-color="#e8f2f2"/>
      <stop offset="1" stop-color="#358c8d"/>
    </linearGradient>
    <linearGradient id="a">
      <stop offset="0" stop-color="#7f8488"/>
      <stop offset="1" stop-color="#abaeb1"/>
    </linearGradient>
    <linearGradient xlink:href="#a" id="e" x1="370.31921" x2="376.54907" y1="561.75732" y2="568.29773" gradientTransform="translate(-805.01002 -1384.977) scale(2.48231)" gradientUnits="userSpaceOnUse"/>
    <linearGradient xlink:href="#a" id="d" x1="370.31921" x2="376.54907" y1="561.75732" y2="568.29773" gradientTransform="translate(-805.01002 -1359.9908) scale(2.48231)" gradientUnits="userSpaceOnUse"/>
    <radialGradient xlink:href="#b" id="c" cx="329.29022" cy="568.05066" r="46.939762" fx="329.29022" fy="568.05066" gradientTransform="matrix(-.89468 1.15552 -1.41052 -1.0921 1126.4832 266.91251)" gradientUnits="userSpaceOnUse"/>
  </defs>
  <path d="M3.2954941 92h131.2v4h-131.2z"/>
  <rect width="136.79099" height="90.96386" x=".5" y=".5" fill="#955745" stroke="#6f3128" stroke-linecap="round" rx="0" ry="0"/>
  <path fill="#333" d="M7.5309474 4.4253576c-1.78611 0-3.21875 1.43267-3.21875 3.21875V86.269108c0 1.78612 1.43264 3.24997 3.21875 3.25H108.15595l.125-85.0937504H7.5309474z"/>
  <path fill="url(#c)" fill-rule="evenodd" stroke="#000" d="M56.805387 9.3660776c11.64732 0 38.02425.9240704 41.80765 4.0379204 3.589363 2.95414 3.789353 22.28447 3.789353 34.18986 0 11.67511-.07525 27.7894-3.530563 31.24472-3.51046 3.51046-29.54716 5.71648-42.06644 5.71648-11.20343 0-39.8931-1.1619-44.00322-5.27203-4.0523596-4.05235-3.2057896-17.99533-3.2057896-31.68917 0-13.57874-.26087-30.16659 3.4236696-33.85113 3.74282-3.7428204 30.76884-4.3766504 43.78534-4.3766504z"/>
  <path fill="url(#d)" stroke="#000" stroke-linecap="round" d="M133.34826 42.41238c0 6.156387-4.99074 11.147129-11.14713 11.147129-6.15636 0-11.1471-4.990742-11.1471-11.147129 0-6.156388 4.99074-11.14713 11.1471-11.14713 6.15639 0 11.14713 4.990742 11.14713 11.14713z"/>
  <path fill="#1e1b22" stroke="#000" stroke-linecap="round" d="M128.03867 42.41241c0 3.223975-2.61355 5.837525-5.83753 5.837525-3.22396 0-5.83751-2.61355-5.83751-5.837525 0-3.223974 2.61355-5.837524 5.83751-5.837524 3.22398 0 5.83753 2.61355 5.83753 5.837524z"/>
  <path fill="none" stroke="#7f7f7f" stroke-linecap="round" stroke-width="2" d="M121.59262 51.003365c-3.81173-.27-6.98978-3.01935-7.80546-6.752557-.8157-3.733207.92605-7.557494 4.27781-9.392683 3.35176-1.835188 7.51198-1.242388 10.21774 1.455946 2.70577 2.698334 3.31002 6.856909 1.48406 10.213711"/>
  <path fill="#a8acab" stroke="#000" stroke-linecap="round" stroke-width=".81893212" d="m119.15919523 39.34294874 2.6724659-1.23617881 3.4114827 7.37520418-2.6724659 1.23617882z"/>
  <path fill="url(#e)" stroke="#000" stroke-linecap="round" d="M133.34826 17.42618c0 6.156387-4.99074 11.147129-11.14713 11.147129-6.15636 0-11.1471-4.990742-11.1471-11.147129 0-6.156388 4.99074-11.1471305 11.1471-11.1471305 6.15639 0 11.14713 4.9907425 11.14713 11.1471305z"/>
  <path fill="#1e1b22" stroke="#000" stroke-linecap="round" d="M128.03867 17.42618c0 3.223975-2.61355 5.837525-5.83753 5.837525-3.22396 0-5.83751-2.61355-5.83751-5.837525 0-3.223974 2.61355-5.837524 5.83751-5.837524 3.22398 0 5.83753 2.61355 5.83753 5.837524z"/>
  <path fill="#a8acab" stroke="#000" stroke-linecap="round" stroke-width=".81893212" d="m117.94697277 16.66655207 1.47414452-2.5489429 7.03431773 4.06819665-1.47414452 2.5489429z"/>
  <path fill="none" stroke="#7f7f7f" stroke-width="1.5" d="M122.20114 24.68024v2.53316m3.62704-3.50502 1.26658 2.19378m1.38859-4.84896 2.19378 1.26658m-1.22192-4.89361h2.53316m-3.50502-3.62703 2.19378-1.26658m-4.84895-1.38859 1.26658-2.19378m-4.89361 1.22192V7.63895m-3.62703 3.50502-1.26658-2.19378m-1.38859 4.84895-2.19378-1.26658m1.22192 4.89361h-2.53316m3.50502 3.62703-2.19378 1.26658m4.84895 1.38859-1.26658 2.19378"/>
  <rect width="23.127403" height="21.927414" x="110.63745" y="67.055405" fill="#6f3228" stroke="#6f3128" stroke-linecap="round" stroke-linejoin="round" stroke-width="1.07259619" ry="0"/>
  <path fill="none" stroke="gray" stroke-width="2.04939008" d="M111.4955 58.181938h21.6m-21.6 4.4h21.6"/>
  <text xml:space="preserve" x="55.44149" y="66.141106" fill="#fff" font-family="Arial" font-size="59.29319382" font-weight="400" style="text-align:center" text-anchor="middle"><tspan x="55.44149" y="66.141106" font-family="Times New Roman">TV</tspan></text>
</svg>